<mxfile host="app.diagrams.net" agent="Mozilla/5.0 (Windows NT 10.0; Win64; x64) AppleWebKit/537.36 (KHTML, like Gecko) Chrome/129.0.0.0 Safari/537.36" version="24.7.17">
  <diagram id="GfgikhJVdEBlfV5p-5aC" name="USE CASE">
    <mxGraphModel dx="1034" dy="454" grid="1" gridSize="10" guides="1" tooltips="1" connect="1" arrows="1" fold="1" page="1" pageScale="1" pageWidth="850" pageHeight="1100" math="0" shadow="0">
      <root>
        <mxCell id="0" />
        <mxCell id="1" parent="0" />
        <mxCell id="Cj3SxONcT0Dg2EkIrwaK-1" value="Pemasok" style="whiteSpace=wrap;strokeWidth=2;fillColor=#76608a;fontColor=#ffffff;strokeColor=#432D57;" parent="1" vertex="1">
          <mxGeometry x="132" y="20" width="77" height="34" as="geometry" />
        </mxCell>
        <mxCell id="Cj3SxONcT0Dg2EkIrwaK-2" value="Penerimaan Barang" style="rounded=1;absoluteArcSize=1;arcSize=14;whiteSpace=wrap;strokeWidth=2;fillColor=#76608a;fontColor=#ffffff;strokeColor=#432D57;" parent="1" vertex="1">
          <mxGeometry x="20" y="122" width="153" height="34" as="geometry" />
        </mxCell>
        <mxCell id="Cj3SxONcT0Dg2EkIrwaK-3" value="Melihat Laporan Stok" style="rounded=1;absoluteArcSize=1;arcSize=14;whiteSpace=wrap;strokeWidth=2;fillColor=#76608a;fontColor=#ffffff;strokeColor=#432D57;" parent="1" vertex="1">
          <mxGeometry x="339" y="122" width="167" height="34" as="geometry" />
        </mxCell>
        <mxCell id="Cj3SxONcT0Dg2EkIrwaK-4" value="Pelanggan" style="whiteSpace=wrap;strokeWidth=2;fillColor=#76608a;fontColor=#ffffff;strokeColor=#432D57;" parent="1" vertex="1">
          <mxGeometry x="1028" y="20" width="87" height="34" as="geometry" />
        </mxCell>
        <mxCell id="Cj3SxONcT0Dg2EkIrwaK-5" value="Pengeluaran Barang" style="rounded=1;absoluteArcSize=1;arcSize=14;whiteSpace=wrap;strokeWidth=2;fillColor=#76608a;fontColor=#ffffff;strokeColor=#432D57;" parent="1" vertex="1">
          <mxGeometry x="795" y="122" width="156" height="34" as="geometry" />
        </mxCell>
        <mxCell id="Cj3SxONcT0Dg2EkIrwaK-6" value="Melihat Notifikasi Pengeluaran" style="rounded=1;absoluteArcSize=1;arcSize=14;whiteSpace=wrap;strokeWidth=2;fillColor=#76608a;fontColor=#ffffff;strokeColor=#432D57;" parent="1" vertex="1">
          <mxGeometry x="1183" y="122" width="233" height="34" as="geometry" />
        </mxCell>
        <mxCell id="Cj3SxONcT0Dg2EkIrwaK-7" value="Admin Gudang" style="whiteSpace=wrap;strokeWidth=2;fillColor=#76608a;fontColor=#ffffff;strokeColor=#432D57;" parent="1" vertex="1">
          <mxGeometry x="772" y="20" width="119" height="34" as="geometry" />
        </mxCell>
        <mxCell id="Cj3SxONcT0Dg2EkIrwaK-8" value="Pemantauan Stok" style="rounded=1;absoluteArcSize=1;arcSize=14;whiteSpace=wrap;strokeWidth=2;fillColor=#76608a;fontColor=#ffffff;strokeColor=#432D57;" parent="1" vertex="1">
          <mxGeometry x="1466" y="122" width="139" height="34" as="geometry" />
        </mxCell>
        <mxCell id="Cj3SxONcT0Dg2EkIrwaK-9" value="Notifikasi Kadaluarsa" style="rounded=1;absoluteArcSize=1;arcSize=14;whiteSpace=wrap;strokeWidth=2;fillColor=#76608a;fontColor=#ffffff;strokeColor=#432D57;" parent="1" vertex="1">
          <mxGeometry x="1310" y="225" width="165" height="34" as="geometry" />
        </mxCell>
        <mxCell id="Cj3SxONcT0Dg2EkIrwaK-10" value="Update Stok" style="whiteSpace=wrap;strokeWidth=2;fillColor=#76608a;fontColor=#ffffff;strokeColor=#432D57;" parent="1" vertex="1">
          <mxGeometry x="45" y="225" width="103" height="34" as="geometry" />
        </mxCell>
        <mxCell id="Cj3SxONcT0Dg2EkIrwaK-11" value="Update Stok" style="whiteSpace=wrap;strokeWidth=2;fillColor=#76608a;fontColor=#ffffff;strokeColor=#432D57;" parent="1" vertex="1">
          <mxGeometry x="822" y="225" width="103" height="34" as="geometry" />
        </mxCell>
        <mxCell id="Cj3SxONcT0Dg2EkIrwaK-12" value="Generate Notifikasi" style="whiteSpace=wrap;strokeWidth=2;fillColor=#76608a;fontColor=#ffffff;strokeColor=#432D57;" parent="1" vertex="1">
          <mxGeometry x="1569" y="225" width="154" height="34" as="geometry" />
        </mxCell>
        <mxCell id="Cj3SxONcT0Dg2EkIrwaK-13" value="Mengirim Barang" style="curved=1;startArrow=none;endArrow=block;exitX=0.19;exitY=0.99;entryX=0.5;entryY=0.01;rounded=0;" parent="1" source="Cj3SxONcT0Dg2EkIrwaK-1" target="Cj3SxONcT0Dg2EkIrwaK-2" edge="1">
          <mxGeometry relative="1" as="geometry">
            <Array as="points">
              <mxPoint x="96" y="88" />
            </Array>
          </mxGeometry>
        </mxCell>
        <mxCell id="Cj3SxONcT0Dg2EkIrwaK-14" value="Melihat Status Barang" style="curved=1;startArrow=none;endArrow=block;exitX=1.01;exitY=0.75;entryX=0.45;entryY=0.01;rounded=0;" parent="1" source="Cj3SxONcT0Dg2EkIrwaK-1" target="Cj3SxONcT0Dg2EkIrwaK-3" edge="1">
          <mxGeometry relative="1" as="geometry">
            <Array as="points">
              <mxPoint x="399" y="88" />
            </Array>
          </mxGeometry>
        </mxCell>
        <mxCell id="Cj3SxONcT0Dg2EkIrwaK-15" value="Mengajukan Permintaan Barang" style="curved=1;startArrow=none;endArrow=block;exitX=0;exitY=0.76;entryX=0.4;entryY=0.01;rounded=0;" parent="1" source="Cj3SxONcT0Dg2EkIrwaK-4" target="Cj3SxONcT0Dg2EkIrwaK-5" edge="1">
          <mxGeometry relative="1" as="geometry">
            <Array as="points">
              <mxPoint x="824" y="88" />
            </Array>
          </mxGeometry>
        </mxCell>
        <mxCell id="Cj3SxONcT0Dg2EkIrwaK-16" value="Melihat Status Permintaan" style="curved=1;startArrow=none;endArrow=block;exitX=1;exitY=0.78;entryX=0.5;entryY=0.01;rounded=0;" parent="1" source="Cj3SxONcT0Dg2EkIrwaK-4" target="Cj3SxONcT0Dg2EkIrwaK-6" edge="1">
          <mxGeometry relative="1" as="geometry">
            <Array as="points">
              <mxPoint x="1299" y="88" />
            </Array>
          </mxGeometry>
        </mxCell>
        <mxCell id="Cj3SxONcT0Dg2EkIrwaK-17" value="Menerima Barang" style="curved=1;startArrow=none;endArrow=block;exitX=0;exitY=0.65;entryX=0.8;entryY=0.01;rounded=0;" parent="1" source="Cj3SxONcT0Dg2EkIrwaK-7" target="Cj3SxONcT0Dg2EkIrwaK-2" edge="1">
          <mxGeometry relative="1" as="geometry">
            <Array as="points">
              <mxPoint x="238" y="88" />
            </Array>
          </mxGeometry>
        </mxCell>
        <mxCell id="Cj3SxONcT0Dg2EkIrwaK-18" value="Memproses Pengeluaran Barang" style="curved=1;startArrow=none;endArrow=block;exitX=1;exitY=0.87;entryX=0.91;entryY=0.01;rounded=0;" parent="1" source="Cj3SxONcT0Dg2EkIrwaK-7" target="Cj3SxONcT0Dg2EkIrwaK-5" edge="1">
          <mxGeometry relative="1" as="geometry">
            <Array as="points">
              <mxPoint x="1069" y="88" />
            </Array>
          </mxGeometry>
        </mxCell>
        <mxCell id="Cj3SxONcT0Dg2EkIrwaK-19" value="Memantau Stok" style="curved=1;startArrow=none;endArrow=block;exitX=1;exitY=0.62;entryX=0.5;entryY=0.01;rounded=0;" parent="1" source="Cj3SxONcT0Dg2EkIrwaK-7" target="Cj3SxONcT0Dg2EkIrwaK-8" edge="1">
          <mxGeometry relative="1" as="geometry">
            <Array as="points">
              <mxPoint x="1536" y="88" />
            </Array>
          </mxGeometry>
        </mxCell>
        <mxCell id="Cj3SxONcT0Dg2EkIrwaK-20" value="Menghasilkan Laporan Stok" style="curved=1;startArrow=none;endArrow=block;exitX=0;exitY=0.87;entryX=0.84;entryY=0.01;rounded=0;" parent="1" source="Cj3SxONcT0Dg2EkIrwaK-7" target="Cj3SxONcT0Dg2EkIrwaK-3" edge="1">
          <mxGeometry relative="1" as="geometry">
            <Array as="points">
              <mxPoint x="594" y="88" />
            </Array>
          </mxGeometry>
        </mxCell>
        <mxCell id="Cj3SxONcT0Dg2EkIrwaK-21" value="Notifikasi Barang Kadaluarsa" style="curved=1;startArrow=none;endArrow=block;exitX=0.16;exitY=1;entryX=0.5;entryY=-0.01;rounded=0;" parent="1" source="Cj3SxONcT0Dg2EkIrwaK-8" target="Cj3SxONcT0Dg2EkIrwaK-9" edge="1">
          <mxGeometry relative="1" as="geometry">
            <Array as="points">
              <mxPoint x="1393" y="190" />
            </Array>
          </mxGeometry>
        </mxCell>
        <mxCell id="Cj3SxONcT0Dg2EkIrwaK-22" value="" style="curved=1;startArrow=none;endArrow=block;exitX=0.5;exitY=1;entryX=0.5;entryY=-0.01;rounded=0;" parent="1" source="Cj3SxONcT0Dg2EkIrwaK-2" target="Cj3SxONcT0Dg2EkIrwaK-10" edge="1">
          <mxGeometry relative="1" as="geometry">
            <Array as="points" />
          </mxGeometry>
        </mxCell>
        <mxCell id="Cj3SxONcT0Dg2EkIrwaK-23" value="" style="curved=1;startArrow=none;endArrow=block;exitX=0.5;exitY=1;entryX=0.49;entryY=-0.01;rounded=0;" parent="1" source="Cj3SxONcT0Dg2EkIrwaK-5" target="Cj3SxONcT0Dg2EkIrwaK-11" edge="1">
          <mxGeometry relative="1" as="geometry">
            <Array as="points" />
          </mxGeometry>
        </mxCell>
        <mxCell id="Cj3SxONcT0Dg2EkIrwaK-24" value="" style="curved=1;startArrow=none;endArrow=block;exitX=0.76;exitY=1;entryX=0.5;entryY=-0.01;rounded=0;" parent="1" source="Cj3SxONcT0Dg2EkIrwaK-8" target="Cj3SxONcT0Dg2EkIrwaK-12" edge="1">
          <mxGeometry relative="1" as="geometry">
            <Array as="points">
              <mxPoint x="1646" y="190" />
            </Array>
          </mxGeometry>
        </mxCell>
        <mxCell id="Sq2gMJRMpQM6Te6IvnWh-1" value="&lt;b&gt;Use Case&lt;/b&gt;&lt;div&gt;&lt;b&gt;Diagram&lt;/b&gt;&lt;/div&gt;" style="whiteSpace=wrap;html=1;fillColor=#647687;fontColor=#ffffff;strokeColor=#314354;" parent="1" vertex="1">
          <mxGeometry x="790" y="370" width="120" height="60" as="geometry" />
        </mxCell>
      </root>
    </mxGraphModel>
  </diagram>
</mxfile>
